HIERARCHY
ROOT Hips
{
	OFFSET 0.00000 0.00000 0.00000
	CHANNELS 6 Xposition Yposition Zposition Yrotation Zrotation Xrotation 
	JOINT Lumbar
	{
		OFFSET 0 0 0
		CHANNELS 3 Zrotation Xrotation Yrotation
		JOINT Neck
		{
			OFFSET 0.00 0.2701 0.00
			CHANNELS 3 Zrotation Xrotation Yrotation
			End Site
			{
				OFFSET 0.00 0.1379 0.00
			}
		}
		JOINT RightShoulder
		{
			OFFSET 0.0119 0.2289 0.1181
			CHANNELS 3 Zrotation Xrotation Yrotation
			JOINT RightElbow
			{
				OFFSET 0.00 -0.1475 0.00
				CHANNELS 2 Zrotation Yrotation
				JOINT RightWrist
				{
					OFFSET 0.00 -0.1605 0.00
					CHANNELS 2 Zrotation Xrotation
					End Site
					{
						OFFSET 0.0040 -0.1068 0.0006
					}
				}
			}
		}
		JOINT LeftShoulder
		{
			OFFSET 0.0119 0.2289 -0.1181
			CHANNELS 3 Zrotation Xrotation Yrotation
			JOINT LeftElbow
			{
				OFFSET 0.00 -0.1475 0.00
				CHANNELS 2 Zrotation Yrotation
				JOINT LeftWrist
				{
					OFFSET 0.00 -0.1605 0.00
					CHANNELS 2 Zrotation Xrotation
					End Site
					{
						OFFSET 0.0040 -0.1068 -0.0006
					}
				}
			}
		}
	}
	JOINT RightHip
	{
		OFFSET 0.0316 -0.0424 0.0458
		CHANNELS 3 Zrotation Xrotation Yrotation
		JOINT RightKnee
		{
			OFFSET 0.00 -0.2438 0.00
			CHANNELS 1 Zrotation
			JOINT RightAnkle
			{
				OFFSET 0.00 -0.2449 0.00
				CHANNELS 3 Zrotation Xrotation Yrotation
				End Site
				{
					OFFSET 0.1237 -0.0542 0.0051
				}
			}
		}
	}
	JOINT LeftHip
	{
		OFFSET 0.0316 -0.0424 -0.0458
		CHANNELS 3 Zrotation Xrotation Yrotation
		JOINT LeftKnee
		{
			OFFSET 0.00 -0.2438 0.00
			CHANNELS 1 Zrotation
			JOINT LeftAnkle
			{
				OFFSET 0.00 -0.2449 0.00
				CHANNELS 3 Zrotation Xrotation Yrotation
				End Site
				{
					OFFSET 0.1237 -0.0542 -0.0051
				}
			}
		}
	}
}
MOTION
Frames: 22
Frame Time: 0.02
-0.97421 -0.00682 -0.09869 213.2462 -70.62297 4.44552 -13.71165 8.098 8.97275 -28.53497 -0.00034 -0.83079 104.4452 7.59943 61.5217 5.3495 77.91796 -4.23264 1.89241 102.02533 9.3297 -29.00354 18.42838 -81.77917 -10.53171 6.30119 87.02774 -0.24521 -9.00747 -37.68851 -6.78409 -4.72513 -3.16074 88.4315 6.90026 0.97662 -31.25971 -7.10097 2.56214 1.99964
-0.97423 -0.00678 -0.09876 213.31949 -70.69326 4.5097 -13.59991 8.08924 8.91506 -28.36021 -0.22615 -0.83079 105.04924 6.72913 35.17328 5.31321 79.07114 -3.34139 1.74735 102.16084 9.14386 -29.09777 18.50047 -81.78229 -10.53621 6.20898 87.08776 -0.22151 -8.94398 -37.63099 -6.79892 -4.73687 -3.16628 88.51143 6.71392 0.31419 -31.25334 -7.12042 2.66574 2.05296
-0.97427 -0.00672 -0.09883 213.4185 -70.77074 4.56591 -13.48061 8.0752 8.85872 -28.19482 -0.48138 -0.83079 105.62466 5.80508 1.69173 5.33558 81.17881 -1.98249 1.38463 102.31728 8.95196 -29.23622 18.60715 -81.78931 -10.50815 6.10127 87.14488 -0.2039 -8.92047 -37.565 -6.81242 -4.74798 -3.1705 88.59329 6.50746 -0.44376 -31.23231 -7.14409 2.78651 2.11243
-0.9743 -0.00667 -0.09889 213.50745 -70.83746 4.6305 -13.37028 8.06213 8.79283 -28.04593 -0.74347 -0.83079 106.19879 4.8863 -27.54018 5.32905 82.72318 -0.84936 1.10287 102.45678 8.7781 -29.3616 18.706 -81.79117 -10.49301 6.0001 87.19638 -0.18533 -8.87407 -37.5104 -6.82491 -4.75927 -3.1752 88.66427 6.32097 -1.10891 -31.21501 -7.16502 2.89201 2.16509
-0.97433 -0.00661 -0.09896 213.58894 -70.9354 4.67423 -13.23676 8.05414 8.76443 -27.81303 -0.92371 -0.83079 106.83621 4.03833 -61.02184 5.32817 84.78119 0.33949 0.9033 102.62911 8.53872 -29.46146 18.77494 -81.80717 -10.48426 5.9014 87.27688 -0.15879 -8.84693 -37.42442 -6.84409 -4.77105 -3.18043 88.77737 6.08977 -1.97931 -31.20996 -7.18944 3.02836 2.23436
-0.97437 -0.00656 -0.09903 213.69147 -70.97077 4.75847 -13.14903 8.03485 8.65908 -27.75212 -1.27798 -0.83079 107.33436 3.03633 -87.37119 5.33093 86.0096 1.52031 0.47997 102.73743 8.43422 -29.62221 18.91198 -81.79511 -10.45503 5.79407 87.29681 -0.14992 -8.78997 -37.40052 -6.84922 -4.78164 -3.18424 88.80409 5.94568 -2.45139 -31.17631 -7.20764 3.10544 2.27103
-0.97444 -0.00655 -0.09908 213.8555 -70.82421 4.97276 -13.19741 7.98345 8.33199 -28.21072 -2.13129 -0.83079 107.44854 1.59424 -91.98581 5.32941 84.71212 2.59991 -0.52718 102.66409 8.71004 -29.95558 19.24205 -81.6994 -10.37739 5.66269 87.14481 -0.19481 -8.63477 -37.56347 -6.81404 -4.78927 -3.18429 88.58094 6.05794 -1.73427 -31.06303 -7.2071 3.00648 2.21101
-0.97451 -0.00653 -0.09914 214.03793 -70.61567 5.22524 -13.29068 7.92125 7.92913 -28.83308 -3.15378 -0.83079 107.4239 0.00608 -89.22635 5.33008 82.55806 3.64709 -1.74918 102.52515 9.12072 -30.34585 19.63651 -81.57613 -10.28032 5.52386 86.93278 -0.25632 -8.44966 -37.78672 -6.76509 -4.79566 -3.18296 88.27256 6.2567 -0.62436 -30.92221 -7.20025 2.84875 2.11886
-0.97459 -0.00652 -0.09919 214.20617 -70.44041 5.45006 -13.35846 7.8657 7.56657 -29.35031 -4.08178 -0.83079 107.46699 -1.4969 -90.03582 5.33029 80.79364 4.68914 -2.86188 102.41623 9.46585 -30.69917 19.99255 -81.46903 -10.19239 5.39092 86.75196 -0.30597 -8.28186 -37.9738 -6.72371 -4.80255 -3.1824 88.01036 6.40851 0.26217 -30.79678 -7.19663 2.72332 2.04481
-0.97466 -0.00651 -0.09925 214.40109 -70.24419 5.71859 -13.44779 7.8031 7.17876 -29.99902 -5.08511 -0.83079 107.49104 -3.08464 -90.18384 5.33018 79.03416 5.84002 -4.03288 102.30817 9.82924 -31.09931 20.38904 -81.34721 -10.1025 5.24667 86.55514 -0.37352 -8.09844 -38.19788 -6.67687 -4.80986 -3.18132 87.71732 6.59121 1.33249 -30.65879 -7.19161 2.57503 1.95637
-0.97474 -0.00649 -0.0993 214.54293 -70.07633 5.90462 -13.50256 7.75205 6.82618 -30.41074 -5.97137 -0.83079 107.52027 -4.52555 -89.85474 5.33056 77.08158 6.73951 -5.12863 102.18121 10.18608 -31.41686 20.71543 -81.24877 -10.01184 5.12467 86.37659 -0.40825 -7.94159 -38.35892 -6.63798 -4.8158 -3.18088 87.46761 6.7312 2.11742 -30.54053 -7.18796 2.46 1.89002
-0.97483 -0.00643 -0.09933 214.547 -70.00579 5.85907 -13.45462 7.74134 6.58396 -30.14338 -6.49178 -0.83079 107.61285 -5.56033 -90.06175 5.33138 74.512 7.04711 -5.97847 102.02815 10.49692 -31.47568 20.83769 -81.22765 -9.92949 5.06373 86.26994 -0.34331 -7.85131 -38.3348 -6.62584 -4.81997 -3.1837 87.36358 6.72531 1.99518 -30.48427 -7.18955 2.45249 1.89392
-0.97491 -0.00635 -0.09936 214.49441 -69.96499 5.72818 -13.36953 7.74165 6.38091 -29.62842 -6.88828 -0.83079 107.71215 -6.43501 -89.99538 5.33243 71.82209 7.08506 -6.73976 101.85603 10.79523 -31.45275 20.8858 -81.23007 -9.84603 5.02589 86.18231 -0.24568 -7.79138 -38.24454 -6.62192 -4.82249 -3.18702 87.30491 6.67503 1.57779 -30.44872 -7.19273 2.48001 1.9208
-0.975 -0.00628 -0.09939 214.45889 -69.90824 5.63282 -13.29931 7.73303 6.16338 -29.21735 -7.34252 -0.83079 107.7994 -7.36031 -89.98885 5.33336 69.38212 7.17947 -7.5331 101.68634 11.09648 -31.47746 20.96453 -81.2175 -9.75961 4.97904 86.08181 -0.1662 -7.72645 -38.18218 -6.61329 -4.82469 -3.18937 87.22238 6.64933 1.31007 -30.40332 -7.19525 2.49071 1.93631
-0.9751 -0.00622 -0.09941 214.46062 -69.86033 5.55262 -13.23994 7.74026 5.92879 -28.85064 -7.79796 -0.83079 107.92227 -8.38611 -90.01174 5.33449 66.11174 7.54308 -8.37538 101.54201 11.41564 -31.45813 21.05945 -81.22125 -9.68749 4.92578 85.99784 -0.0733 -7.62282 -38.13093 -6.60826 -4.83142 -3.1948 87.15151 6.60711 0.98705 -30.35897 -7.19732 2.50369 1.95492
-0.97517 -0.00613 -0.09945 214.37112 -69.80096 5.41992 -13.14759 7.71765 5.74049 -28.32783 -8.21763 -0.83079 107.97124 -9.16028 -89.99079 5.3352 64.52433 7.29355 -9.08345 101.33951 11.69082 -31.51262 21.10105 -81.19799 -9.5851 4.89128 85.88373 -0.00052 -7.60808 -38.04017 -6.59788 -4.82827 -3.19394 87.06705 6.5888 0.70821 -30.31749 -7.20076 2.52034 1.9726
-0.9752 -0.00598 -0.09954 214.04309 -69.71061 5.16436 -12.98147 7.60633 5.66694 -27.45662 -8.5815 -0.83079 107.84143 -9.29858 -90.01073 5.33462 67.87851 5.32276 -9.5124 100.99577 11.86313 -31.7697 21.02342 -81.08579 -9.40395 4.90449 85.6907 0.01032 -7.8247 -37.85521 -6.57059 -4.79904 -3.17586 86.94455 6.63622 0.5835 -30.28105 -7.20775 2.54493 1.98529
-0.9752 -0.0058 -0.09966 213.62537 -69.60645 4.85861 -12.78175 7.46535 5.6397 -26.43157 -8.91016 -0.83079 107.63251 -9.18533 -89.98787 5.3336 72.8931 2.7642 -9.79472 100.59178 11.98784 -32.10644 20.89283 -80.94731 -9.19186 4.93547 85.46528 -0.0003 -8.13054 -37.63272 -6.53775 -4.75989 -3.15144 86.80523 6.71037 0.51732 -30.24654 -7.21604 2.57134 1.99594
-0.97522 -0.00564 -0.09977 213.24873 -69.50377 4.57465 -12.59177 7.34034 5.59386 -25.4621 -9.24616 -0.83079 107.44309 -9.17272 -89.99261 5.3328 76.96813 0.5337 -10.09791 100.206 12.12376 -32.42175 20.77934 -80.82671 -8.99073 4.95741 85.24912 -0.00223 -8.40079 -37.42796 -6.50754 -4.7247 -3.1297 86.66714 6.77978 0.45069 -30.20983 -7.22371 2.59272 2.00544
-0.97523 -0.00547 -0.09987 212.86809 -69.42258 4.29147 -12.42368 7.20507 5.53883 -24.54601 -9.61566 -0.83079 107.32402 -9.20984 -90.05834 5.33191 81.78738 -1.97287 -10.59333 99.85806 12.30416 -32.67647 20.69151 -80.682 -8.80162 4.98447 85.05672 0.0009 -8.65356 -37.21805 -6.47697 -4.69144 -3.10862 86.55781 6.81847 0.27026 -30.17932 -7.23169 2.63205 2.02401
-0.97525 -0.00531 -0.09998 212.47607 -69.29266 3.99656 -12.20274 7.08413 5.51368 -23.48364 -9.90716 -0.83079 107.03866 -9.08885 -89.85396 5.33111 85.49263 -4.0288 -10.65221 99.41746 12.37973 -33.07165 20.54013 -80.58078 -8.58143 5.00449 84.80679 -0.01133 -8.9605 -37.01084 -6.44597 -4.65224 -3.08489 86.3838 6.9255 0.33623 -30.13619 -7.23913 2.63518 2.02353
-0.97529 -0.00516 -0.10008 212.06739 -69.03445 3.67585 -11.84246 7.00846 5.55775 -22.07125 -10.00461 -0.83079 106.32157 -8.56368 -90.17307 5.33067 85.35036 -4.80355 -9.56651 98.73475 12.18584 -33.88493 20.21317 -80.60764 -8.2727 5.00336 84.40699 -0.06699 -9.42155 -36.82008 -6.41306 -4.59546 -3.05341 86.03707 7.23682 1.14108 -30.05678 -7.24628 2.52762 1.96548
